HIERARCHY
ROOT Hips
{
	OFFSET -0.001795 -0.223333 0.028219
	CHANNELS 6 Xposition Yposition Zposition Zrotation Yrotation Xrotation 
	JOINT LeftUpLeg
	{
		OFFSET 0.069520 -0.091406 -0.006815
		CHANNELS 3 Zrotation Yrotation Xrotation
		JOINT LeftLeg
		{
			OFFSET 0.034277 -0.375199 -0.004496
			CHANNELS 3 Zrotation Yrotation Xrotation
			JOINT LeftFoot
			{
				OFFSET -0.013596 -0.397961 -0.043693
				CHANNELS 3 Zrotation Yrotation Xrotation
				JOINT LeftToe
				{
					OFFSET 0.026358 -0.055791 0.119288
					CHANNELS 3 Zrotation Yrotation Xrotation
					End Site
					{
						OFFSET 0.000000 0.000000 0.000000
					}
				}
			}
		}
	}
	JOINT RightUpLeg
	{
		OFFSET -0.067670 -0.090522 -0.004320
		CHANNELS 3 Zrotation Yrotation Xrotation
		JOINT RightLeg
		{
			OFFSET -0.038290 -0.382569 -0.008850
			CHANNELS 3 Zrotation Yrotation Xrotation
			JOINT RightFoot
			{
				OFFSET 0.015774 -0.398415 -0.042312
				CHANNELS 3 Zrotation Yrotation Xrotation
				JOINT RightToe
				{
					OFFSET -0.025372 -0.048144 0.123348
					CHANNELS 3 Zrotation Yrotation Xrotation
					End Site
					{
						OFFSET 0.000000 0.000000 0.000000
					}
				}
			}
		}
	}
	JOINT Spine
	{
		OFFSET -0.002533 0.108963 -0.026696
		CHANNELS 3 Zrotation Yrotation Xrotation
		JOINT Spine1
		{
			OFFSET 0.005487 0.135180 0.001092
			CHANNELS 3 Zrotation Yrotation Xrotation
			JOINT Spine2
			{
				OFFSET 0.001457 0.052922 0.025425
				CHANNELS 3 Zrotation Yrotation Xrotation
				JOINT Neck
				{
					OFFSET -0.002778 0.213870 -0.042857
					CHANNELS 3 Zrotation Yrotation Xrotation
					JOINT Head
					{
						OFFSET 0.005152 0.064970 0.051349
						CHANNELS 3 Zrotation Yrotation Xrotation
						End Site
						{
							OFFSET 0.000000 0.000000 0.000000
						}
					}
				}
				JOINT LeftShoulder
				{
					OFFSET 0.078845 0.121749 -0.034090
					CHANNELS 3 Zrotation Yrotation Xrotation
					JOINT LeftArm
					{
						OFFSET 0.090977 0.030469 -0.008868
						CHANNELS 3 Zrotation Yrotation Xrotation
						JOINT LeftForeArm
						{
							OFFSET 0.259612 -0.012772 -0.027456
							CHANNELS 3 Zrotation Yrotation Xrotation
							JOINT LeftHand
							{
								OFFSET 0.249234 0.008986 -0.001171
								CHANNELS 3 Zrotation Yrotation Xrotation
								End Site
								{
									OFFSET 0.000000 0.000000 0.000000
								}
							}
						}
					}
				}
				JOINT RightShoulder
				{
					OFFSET -0.081759 0.118833 -0.038615
					CHANNELS 3 Zrotation Yrotation Xrotation
					JOINT RightArm
					{
						OFFSET -0.096012 0.032551 -0.009143
						CHANNELS 3 Zrotation Yrotation Xrotation
						JOINT RightForeArm
						{
							OFFSET -0.253742 -0.013329 -0.021401
							CHANNELS 3 Zrotation Yrotation Xrotation
							JOINT RightHand
							{
								OFFSET -0.255298 0.007772 -0.005559
								CHANNELS 3 Zrotation Yrotation Xrotation
								End Site
								{
									OFFSET 0.000000 0.000000 0.000000
								}
							}
						}
					}
				}
			}
		}
	}
}
MOTION
Frames: 10
Frame Time: 0.050000
-0.028657 0.922841 -0.023739 4.643134 -7.273972 -0.099042 12.899481 0.148225 0.016219 -6.775684 0.853316 -0.673689 -1.888167 0.155090 10.547408 0.000000 0.000000 0.000000 -15.732952 0.510007 -6.252855 5.166083 -0.411903 11.143870 -6.609744 -16.725233 4.155684 0.000000 0.000000 0.000000 9.638189 -2.565890 23.542288 12.961708 -2.848758 -22.263904 9.060817 2.434661 18.086721 0.008230 1.172382 -22.877509 0.000000 0.000000 0.000000 -32.339431 -5.154765 2.003388 -47.130444 -0.157212 -7.138206 -26.123387 -33.509013 9.833488 0.000000 0.000000 0.000000 18.521122 13.898179 5.484069 31.499564 6.886462 -2.176054 -15.655624 44.699218 -4.897921 0.000000 0.000000 0.000000 
-0.031347 0.922975 -0.023876 4.721433 -7.134165 -0.037603 12.865481 0.142500 -0.167033 -6.892523 0.869054 -0.561261 -1.668240 0.609765 10.729619 0.000000 0.000000 0.000000 -15.628127 0.511385 -6.084216 5.305991 -0.443808 10.863906 -6.511284 -16.456013 3.783070 0.000000 0.000000 0.000000 9.770160 -2.603931 23.553522 13.014113 -2.873623 -22.166441 8.806271 2.333475 18.129213 -0.362262 1.403740 -23.202459 0.000000 0.000000 0.000000 -32.089498 -4.979962 1.888785 -47.296776 -0.261677 -7.124011 -26.945873 -33.538255 10.125042 0.000000 0.000000 0.000000 18.695689 13.749476 5.413891 31.216079 6.241091 -2.301816 -15.343285 44.905621 -4.804587 0.000000 0.000000 0.000000 
-0.033817 0.922989 -0.024289 4.680476 -6.965088 -0.086896 13.075854 0.140615 -0.101172 -6.995366 0.882901 -0.429988 -1.582198 0.763543 10.687031 0.000000 0.000000 0.000000 -15.399789 0.511379 -5.734054 5.328184 -0.455275 10.511246 -6.482980 -16.323597 3.391469 0.000000 0.000000 0.000000 9.970077 -2.645785 23.475215 12.678333 -2.800123 -22.105784 8.810834 2.002185 18.434030 -0.401815 1.409752 -23.660889 0.000000 0.000000 0.000000 -32.026747 -4.969867 2.003610 -47.704177 -0.290510 -7.231541 -27.408079 -33.692905 10.370251 0.000000 0.000000 0.000000 18.414282 13.374238 5.153329 31.378142 5.800647 -2.418157 -15.753434 45.292689 -5.045090 0.000000 0.000000 0.000000 
-0.035953 0.923146 -0.025095 4.547684 -6.813183 0.075232 13.352000 0.137823 -0.301064 -6.982159 0.881232 -0.312437 -1.591297 0.867515 10.997257 0.000000 0.000000 0.000000 -15.083213 0.507552 -5.723080 5.456336 -0.484112 10.200598 -6.558584 -16.507707 3.525583 0.000000 0.000000 0.000000 10.063041 -2.679812 23.445115 12.699915 -2.848019 -21.796437 8.523529 2.001774 18.335920 -0.313649 1.383404 -23.869289 0.000000 0.000000 0.000000 -32.159883 -5.034999 1.995858 -48.014827 -0.279791 -7.254429 -28.155369 -34.039829 10.735979 0.000000 0.000000 0.000000 18.483093 13.172326 5.076162 30.790009 5.572545 -2.426069 -17.394257 45.350991 -5.717435 0.000000 0.000000 0.000000 
-0.037586 0.923244 -0.026210 4.380293 -6.602796 0.116116 13.575207 0.131816 -0.285526 -6.933593 0.869548 -0.358685 -1.623810 0.792206 10.866921 0.000000 0.000000 0.000000 -14.707543 0.501153 -5.523653 5.564571 -0.510400 9.840900 -6.716431 -16.851569 3.605198 0.000000 0.000000 0.000000 10.149425 -2.695554 23.263718 12.558548 -2.871451 -21.388195 8.471558 1.813774 18.353701 -0.514789 1.492081 -23.986426 0.000000 0.000000 0.000000 -32.201800 -5.167287 2.122328 -48.780724 -0.536333 -7.276710 -28.760846 -34.189765 11.021468 0.000000 0.000000 0.000000 18.236722 13.218415 5.077729 30.202729 5.742902 -2.345969 -19.767782 44.515134 -6.559037 0.000000 0.000000 0.000000 
-0.038670 0.923620 -0.027492 4.246664 -6.645957 0.172717 13.575281 0.125678 -0.023878 -6.734057 0.836576 -0.642606 -1.545520 0.935342 10.909298 0.000000 0.000000 0.000000 -14.379388 0.503911 -5.461833 5.481107 -0.496176 9.578794 -6.807716 -17.047160 3.647208 0.000000 0.000000 0.000000 10.105342 -2.705677 23.437468 12.676873 -2.946562 -21.084361 8.218370 1.995040 18.205952 -0.484128 1.519226 -24.315841 0.000000 0.000000 0.000000 -32.661614 -5.510304 2.272163 -49.303244 -0.410988 -7.362329 -29.060897 -34.349594 11.170824 0.000000 0.000000 0.000000 17.971952 13.395362 5.207683 29.363947 6.226206 -2.192281 -21.733152 43.166209 -7.077685 0.000000 0.000000 0.000000 
-0.039412 0.923912 -0.028728 4.061570 -6.623577 0.240270 13.593503 0.121150 0.030815 -6.541914 0.806797 -0.839166 -1.541438 0.969356 10.983371 0.000000 0.000000 0.000000 -14.064056 0.499889 -5.565063 5.375932 -0.479844 9.395904 -6.726407 -16.909366 3.839976 0.000000 0.000000 0.000000 10.002602 -2.706553 23.589606 12.528271 -2.911061 -21.054595 8.094608 1.903991 18.193958 -0.096262 1.302366 -24.615173 0.000000 0.000000 0.000000 -33.044049 -5.409740 2.229743 -49.756347 -0.670451 -7.337948 -29.201106 -33.697073 11.011055 0.000000 0.000000 0.000000 17.811033 13.591457 5.291034 28.484670 6.790885 -2.021909 -22.901943 41.900516 -7.294417 0.000000 0.000000 0.000000 
-0.040189 0.924509 -0.029756 3.897622 -6.787100 0.302232 13.568490 0.120520 0.264429 -6.274882 0.770413 -1.093494 -1.481940 1.088939 11.093728 0.000000 0.000000 0.000000 -13.899567 0.504741 -5.708208 5.450491 -0.488477 9.382780 -6.536315 -16.503934 3.774139 0.000000 0.000000 0.000000 9.934450 -2.703874 23.756832 12.493272 -2.910098 -21.004847 7.769543 1.906638 18.141172 0.260809 1.084743 -24.454863 0.000000 0.000000 0.000000 -33.564764 -5.533984 2.338118 -49.616102 -0.758234 -7.294743 -28.434616 -33.797149 10.786500 0.000000 0.000000 0.000000 17.494885 13.994337 5.479509 27.715778 6.961121 -1.939980 -23.545748 41.475952 -7.469148 0.000000 0.000000 0.000000 
-0.041292 0.924750 -0.030512 3.685077 -7.023281 0.496325 13.535230 0.121594 0.348620 -6.016221 0.737599 -1.323237 -1.138719 1.625841 11.023514 0.000000 0.000000 0.000000 -13.543399 0.514407 -5.902738 5.335919 -0.464348 9.275048 -6.376676 -16.157237 3.687489 0.000000 0.000000 0.000000 9.778060 -2.667749 23.760941 12.618336 -2.956469 -20.891995 7.461859 1.924234 18.011641 0.578470 0.870671 -24.022249 0.000000 0.000000 0.000000 -33.945083 -5.336530 2.228003 -49.651507 -0.880736 -7.254681 -27.504598 -33.614189 10.421955 0.000000 0.000000 0.000000 17.310650 14.407728 5.667056 27.112430 7.066142 -1.872539 -23.120130 41.824806 -7.403723 0.000000 0.000000 0.000000 
-0.042803 0.925077 -0.030972 3.559324 -7.192169 0.708633 13.606680 0.116112 0.643254 -5.773862 0.703618 -1.703201 -1.211364 1.537323 11.200959 0.000000 0.000000 0.000000 -13.267943 0.525113 -5.990789 5.323079 -0.459765 9.033934 -6.280541 -15.918357 3.486874 0.000000 0.000000 0.000000 9.761259 -2.657979 23.691831 12.497689 -2.904602 -21.012027 7.117096 1.820453 18.041601 1.280755 0.397950 -23.378490 0.000000 0.000000 0.000000 -34.539874 -5.195559 2.208620 -49.194289 -0.834009 -7.250987 -26.871978 -33.551795 10.201894 0.000000 0.000000 0.000000 17.483784 14.840235 5.865093 26.413853 7.076514 -1.823112 -21.743399 42.426648 -7.033545 0.000000 0.000000 0.000000 
